<svg xmlns="http://www.w3.org/2000/svg" width="45" height="45" viewBox="0 0 45 45">
  <g id="Group_13" data-name="Group 13" transform="translate(-165 -740)">
    <circle id="Ellipse_2" data-name="Ellipse 2" cx="22.5" cy="22.5" r="22.5" transform="translate(165 740)" fill="#ce242e"/>
    <g id="Layer_2" data-name="Layer 2" transform="translate(175 750)">
      <g id="camera">
        <rect id="Rectangle_16" data-name="Rectangle 16" width="24" height="24" fill="#fff" opacity="0"/>
        <path id="Path_8" data-name="Path 8" d="M19,7H16V5.5A2.5,2.5,0,0,0,13.5,3h-3A2.5,2.5,0,0,0,8,5.5V7H5a3,3,0,0,0-3,3v8a3,3,0,0,0,3,3H19a3,3,0,0,0,3-3V10A3,3,0,0,0,19,7ZM10,5.5a.5.5,0,0,1,.5-.5h3a.5.5,0,0,1,.5.5V7H10ZM20,18a1,1,0,0,1-1,1H5a1,1,0,0,1-1-1V10A1,1,0,0,1,5,9H19a1,1,0,0,1,1,1Z" fill="#fff"/>
        <path id="Path_9" data-name="Path 9" d="M12,10.5A3.5,3.5,0,1,0,15.5,14,3.5,3.5,0,0,0,12,10.5Zm0,5A1.5,1.5,0,1,1,13.5,14,1.5,1.5,0,0,1,12,15.5Z" fill="#fff"/>
      </g>
    </g>
  </g>
</svg>
